<?xml version="1.0" encoding="UTF-8" standalone="no"?>
<!-- Created with Inkscape (http://www.inkscape.org/) -->
<svg
   xmlns:svg="http://www.w3.org/2000/svg"
   xmlns="http://www.w3.org/2000/svg"
   version="1.0"
   width="445"
   height="445"
   id="svg2">
  <defs
     id="defs4" />
  <g
     transform="translate(6.5545455,6.5545455)"
     id="layer3"
     style="display:inline">
    <g
       id="g10435">
      <path
         d="M 350.00001,405.21933 C 350.00001,422.57685 331.29191,436.6479 308.21429,436.6479 C 285.13668,436.6479 266.42858,422.57685 266.42858,405.21933 C 266.42858,387.86181 285.13668,373.79076 308.21429,373.79076 C 331.29191,373.79076 350.00001,387.86181 350.00001,405.21933 z"
         transform="matrix(4.9458763,0,0,6.5757674,-1308.0898,-2448.3281)"
         id="path2355"
         style="fill:#e00000;fill-opacity:1;stroke:#000000;stroke-width:3.378299;stroke-miterlimit:4;stroke-dasharray:none;stroke-opacity:1;display:inline" />
      <path
         d="M 173.53067,48.612839 C 169.51059,49.097219 166.67797,49.758049 166.21817,50.706589 C 164.30875,54.645569 171.13736,86.429599 175.93692,117.58159 C 180.73648,148.73359 183.49943,179.42534 183.49942,179.42534 C 183.49942,179.42534 153.91745,174.87596 123.06192,169.55034 C 92.206394,164.22474 63.079278,158.00039 59.249425,161.61284 C 58.755882,162.07837 58.343748,163.22597 57.999425,164.86284 L 57.999425,265.01909 C 58.377949,266.88413 58.84036,268.08551 59.405675,268.33159 C 64.728271,270.6485 98.703775,263.59742 129.18692,259.01909 C 162.1127,254.07388 183.15567,251.23785 183.15567,251.23784 C 183.15567,251.23784 179.72049,283.17601 175.15567,314.70659 C 170.59083,346.23718 163.01646,375.58253 166.49942,380.89404 C 166.95938,381.59584 168.7143,382.15404 171.28067,382.58164 L 264.37442,382.58164 C 265.77178,382.33764 266.74955,382.07234 267.15567,381.73784 C 271.41938,378.22645 262.59963,345.54448 257.93692,313.58159 C 253.2742,281.61872 250.31192,250.7066 250.31192,250.70659 C 250.31192,250.70659 276.31906,254.509 306.90567,259.05034 C 340.42449,264.02702 367.43304,270.11083 373.87442,268.17534 C 374.77543,267.90461 375.46805,266.28011 375.99942,263.76909 L 375.99942,164.92534 C 375.45017,162.91863 374.75031,161.59538 373.87442,161.26909 C 366.30193,158.44814 337.33605,165.21845 306.90567,170.76909 C 276.4753,176.31974 250.49942,179.76911 250.49942,179.76909 C 250.49942,179.76909 252.6192,149.5071 257.53067,117.95659 C 262.44213,86.406059 270.84205,53.913919 267.68692,49.831589 C 267.25668,49.274909 265.38203,48.893669 262.65567,48.612839 L 173.53067,48.612839 z"
         id="rect7278"
         style="fill:#2b0000;fill-opacity:1;stroke:#000000;stroke-width:0;stroke-miterlimit:4;stroke-opacity:1;display:inline" />
      <path
         d="M 170.00113,54.581589 C 170.00113,54.581589 169.75065,57.770349 170.56363,58.456589 C 172.7483,60.300689 175.31235,61.128459 179.31192,65.019089 C 183.31149,68.909709 185.81683,69.252849 185.99942,74.081589 C 186.03924,75.134629 185.99942,182.58159 185.99942,182.58159 C 185.99942,182.58159 83.471611,182.85761 83.110931,182.69586 C 80.911628,181.70956 77.09696,179.11234 74.228359,175.15696 C 71.06486,170.79496 69.354973,167.37512 67.960824,166.93685 C 66.221261,166.39 63.999425,166.67169 63.999425,166.67169 L 63.999425,264.61113 C 63.999425,264.61113 67.572155,265.24802 68.994293,263.37369 C 71.285232,260.35431 70.892433,260.22237 74.49693,255.63971 C 77.250073,252.13944 80.622462,249.97015 83.336879,248.64945 C 84.327241,248.16759 185.99942,248.61284 185.99942,248.61284 C 185.99942,248.61284 186.63677,356.88513 185.95523,358.03916 C 184.54288,360.43064 183.84377,360.74661 180.38677,365.03146 C 176.12203,370.31747 172.3201,369.98175 170.1779,372.73087 C 169.8133,373.19877 170.00113,376.58159 170.00113,376.58159 L 263.99942,376.58159 C 263.99942,376.58159 264.76816,376.06721 263.99942,373.20812 C 263.55748,371.56444 259.74236,369.60677 255.3807,366.28655 C 251.73425,363.51077 248.26882,362.33366 248.02715,357.59722 C 247.89635,355.03375 247.49942,248.61284 247.49942,248.61284 C 247.49942,248.61284 348.21056,248.3041 350.99942,248.61284 C 353.50685,248.89043 354.83283,252.56822 358.66624,256.5236 C 362.49965,260.47898 364.64959,264.44643 366.33305,264.43435 C 369.18048,264.41493 369.99942,264.43435 369.99942,264.43435 L 369.99942,164.58159 C 369.99942,164.58159 368.11824,164.26275 366.50386,164.66998 C 364.92575,165.06806 361.83447,170.78306 359.86094,173.13964 C 357.91299,175.46567 356.25111,178.36312 354.35127,179.21707 C 353.54077,179.58137 354.09119,179.69094 352.31493,180.86305 C 351.89022,181.14331 351.1428,182.27662 350.12442,182.58159 C 348.72196,183.00158 247.99942,182.58159 247.99942,182.58159 C 247.99942,182.58159 247.82963,75.022229 247.99942,74.081589 C 248.73546,70.003859 250.26504,69.737839 254.24942,65.831589 C 258.23379,61.925339 263.66591,59.280869 263.93692,58.456589 C 264.21985,57.596059 263.93692,54.581589 263.93692,54.581589 L 170.00113,54.581589 z"
         id="rect7303"
         style="fill:#ffffff;fill-opacity:1;stroke:#000000;stroke-width:0;stroke-miterlimit:4;stroke-opacity:1;display:inline" />
      <path
         d="M 168.74942,215.85002 L 217.49942,165.60002 L 265.49942,216.10002 L 218.49942,266.10002 L 168.74942,215.85002 z M 151.99942,215.10002 L 217.24942,148.35002 L 282.49942,215.85002 L 216.99942,282.60002 L 151.99942,215.10002 z"
         id="path7327"
         style="fill:#000000;fill-opacity:1;fill-rule:evenodd;stroke:#000000;stroke-width:1px;stroke-linecap:butt;stroke-linejoin:miter;stroke-opacity:1;display:inline" />
      <path
         d="M 227.15567,189.70659 C 215.08386,189.94764 196.42141,200.60887 196.77659,219.90493 C 196.77659,230.18593 204.59651,241.36282 215.49942,241.36284 C 226.40233,241.36284 235.24942,233.01882 235.24942,222.73784 C 233.86068,208.30399 199.55247,208.53328 230.37442,189.83159 L 230.40567,189.80034 C 230.37233,189.79705 229.14962,189.67704 227.15567,189.70659 z"
         id="path8331"
         style="fill:#e00000;fill-opacity:1;fill-rule:evenodd;stroke:none;stroke-width:1px;stroke-linecap:round;stroke-linejoin:miter;stroke-opacity:1;display:inline" />
    </g>
  </g>
</svg>
